<?xml version="1.0" standalone="no"?>
<!DOCTYPE svg PUBLIC "-//W3C//DTD SVG 1.1//EN" "http://www.w3.org/Graphics/SVG/1.1/DTD/svg11.dtd" >
<svg>
<metadata>
Created by FontForge 20110222 at Thu Mar 12 08:54:54 2015
 By www-data
 The digitally encoded machine readable software for producing the
 Typefaces licensed to you is copyrighted (c) 1985, 1987, 1991, 1993,
 1997, 1998, 1999, 2002 Adobe Systems. All Rights Reserved. This software is the property of
 Adobe Systems Incorporated and its licensors, and may not be
 reproduced, used, displayed, modified, disclosed or transferred
 without the express written approval of Adobe.
 
 The digitally encoded machine readable outline data for producing the Typefaces 
 provided as part of your laser printer is copyrighted (c) 1981, 1999, 2002 Heidelberger Druckmaschinen AG. 
 All rights reserved. This data is the property of Heidelberger Druckmaschinen AG, 
 and may not be reproduced, used, displayed, modified, disclosed or transferred 
 without the express written approval of Heidelberger Druckmaschinen AG. 
</metadata>
<defs>
<font id="HelveticaLTStd-BoldCond" horiz-adv-x="500" >
  <font-face 
    font-family="Helvetica LT Std"
    font-weight="700"
    font-stretch="condensed"
    units-per-em="1000"
    panose-1="2 11 7 6 3 5 2 3 2 4"
    ascent="718"
    descent="-282"
    x-height="564"
    cap-height="750"
    bbox="-169 -250 1091 991"
    underline-thickness="50"
    underline-position="-50"
    stemh="100"
    stemv="130"
    unicode-range="U+0020-FB02"
  />
<missing-glyph 
d="M0 0v700h500v-700h-500zM250 395l170 255h-340zM280 350l170 -255v510zM80 50h340l-170 255zM50 605v-510l170 255z" />
    <glyph glyph-name="fi" unicode="fi" 
d="M446 564v-564h-130v564h130zM446 750v-118h-130v118h130zM246 750v-104c-10 3 -21 6 -29 6c-19 0 -27 -9 -27 -22v-66h56v-95h-56v-469h-130v469h-50v95h50v56c0 102 42 130 137 130h49z" />
    <glyph glyph-name="fl" unicode="fl" 
d="M443 750v-750h-130v750h130zM60 469h-50v95h50v56c0 102 42 130 137 130h49v-104c-10 3 -21 6 -29 6c-19 0 -27 -9 -27 -22v-66h56v-95h-56v-469h-130v469z" />
    <glyph glyph-name=".notdef" 
d="M0 0v700h500v-700h-500zM250 395l170 255h-340zM280 350l170 -255v510zM80 50h340l-170 255zM50 605v-510l170 255z" />
    <glyph glyph-name="space" unicode=" " horiz-adv-x="250" 
 />
    <glyph glyph-name="exclam" unicode="!" horiz-adv-x="333" 
d="M101 540v210h130v-210c3 -57 -1 -115 -6 -173s-11 -115 -15 -173h-85c-3 58 -10 115 -15 173c-6 58 -10 116 -9 173zM232 0h-130v132h130v-132z" />
    <glyph glyph-name="quotedbl" unicode="&#x22;" horiz-adv-x="333" 
d="M318 468h-119v271h119v-271zM135 468h-119v271h119v-271z" />
    <glyph glyph-name="numbersign" unicode="#" 
d="M445 331v-98h-86l-29 -233h-85l28 233h-72l-29 -233h-84l28 233h-85v98h98l11 92h-84v98h95l27 217h83l-26 -217h73l26 217h86l-27 -217h76v-98h-88l-11 -92h75zM296 423h-72l-11 -92h71z" />
    <glyph glyph-name="dollar" unicode="$" 
d="M279 287v-202c34 10 60 39 60 94c0 50 -35 92 -60 108zM218 85v223c-98 65 -173 108 -173 246c0 88 48 171 170 186v63h68v-63c109 -13 160 -70 163 -138c1 -21 5 -42 4 -63h-116c0 54 -8 88 -55 101v-199c104 -53 186 -128 187 -231c2 -138 -51 -206 -183 -225v-109h-68
v106c-140 12 -187 110 -180 240h120c1 -65 -3 -120 63 -137zM218 461v179c-35 -5 -53 -38 -53 -75c0 -50 26 -75 53 -104z" />
    <glyph glyph-name="percent" unicode="%" horiz-adv-x="833" 
d="M184 736c146 0 155 -88 155 -183s-9 -183 -155 -183c-144 0 -153 88 -153 183s9 183 153 183zM186 663c-58 0 -59 -43 -59 -110s1 -110 59 -110c57 0 57 43 57 110s0 110 -57 110zM649 366c146 0 154 -88 154 -183s-8 -183 -154 -183c-144 0 -153 88 -153 183
s9 183 153 183zM650 293c-58 0 -58 -43 -58 -110s0 -110 58 -110c57 0 57 43 57 110s0 110 -57 110zM280 -15h-71l336 765h70z" />
    <glyph glyph-name="ampersand" unicode="&#x26;" horiz-adv-x="667" 
d="M306 518c28 22 58 52 58 91c0 35 -25 58 -50 59s-48 -14 -48 -49s26 -71 40 -101zM363 425l94 -163c14 44 21 91 23 137h111c0 -89 -21 -175 -66 -252l90 -150h-150l-27 50c-52 -50 -105 -65 -175 -65c-115 0 -200 98 -200 226c0 111 56 175 142 236
c-29 50 -59 103 -59 162c0 118 90 162 173 162c79 0 158 -58 158 -156c0 -82 -46 -145 -114 -187zM385 136l-121 207c-26 -10 -80 -66 -70 -133c8 -55 42 -115 100 -115c36 0 65 18 91 41z" />
    <glyph glyph-name="quoteright" unicode="&#x2019;" horiz-adv-x="278" 
d="M81 479v46c43 6 67 34 64 95h-64v130h121v-119c0 -89 -28 -137 -121 -152z" />
    <glyph glyph-name="parenleft" unicode="(" horiz-adv-x="333" 
d="M198 768h81c-60 -118 -95 -234 -95 -505c0 -183 21 -295 97 -461h-83c-107 182 -146 288 -146 502c0 174 43 323 146 464z" />
    <glyph glyph-name="parenright" unicode=")" horiz-adv-x="333" 
d="M135 -198h-81c60 118 95 234 95 505c0 183 -21 295 -97 461h83c107 -182 146 -288 146 -502c0 -174 -43 -323 -146 -464z" />
    <glyph glyph-name="asterisk" unicode="*" 
d="M382 461l-66 -48l-54 77c-3 5 -6 9 -9 15c-3 -7 -8 -13 -12 -19l-54 -74l-66 47l55 76c3 5 6 9 11 14c-7 2 -13 4 -20 6l-88 28l24 76l89 -28c6 -2 12 -3 18 -6c-1 6 -1 13 -1 20v93h80v-93c0 -6 0 -12 -1 -18c6 2 13 4 21 7l86 29l27 -78l-90 -27c-6 -2 -12 -4 -18 -4
c5 -5 10 -11 14 -18z" />
    <glyph glyph-name="plus" unicode="+" 
d="M195 304v188h110v-188h170v-110h-170v-194h-110v194h-169v110h169z" />
    <glyph glyph-name="comma" unicode="," horiz-adv-x="333" 
d="M101 -145v44c47 5 73 47 70 101h-70v132h132v-129c0 -85 -44 -137 -132 -148z" />
    <glyph glyph-name="hyphen" unicode="-" horiz-adv-x="333" 
d="M286 255h-238v115h238v-115z" />
    <glyph glyph-name="period" unicode="." horiz-adv-x="333" 
d="M233 0h-132v132h132v-132z" />
    <glyph glyph-name="slash" unicode="/" horiz-adv-x="278" 
d="M-11 -94l236 844h87l-236 -844h-87z" />
    <glyph glyph-name="zero" unicode="0" 
d="M188 538v-337c-4 -84 25 -106 61 -106c37 0 68 22 64 106v337c4 83 -27 105 -64 105c-36 0 -65 -22 -61 -105zM48 201v337c0 159 76 215 203 215c126 0 202 -56 202 -215v-337c0 -159 -76 -216 -203 -216c-126 0 -202 57 -202 216z" />
    <glyph glyph-name="one" unicode="1" 
d="M213 0v520h-169v100c97 1 178 27 206 130h103v-750h-140z" />
    <glyph glyph-name="two" unicode="2" 
d="M442 0h-410c1 32 5 84 12 127c9 52 46 120 132 211l68 72c45 49 69 73 69 144c0 68 -27 89 -67 89c-29 0 -55 -9 -65 -37c-14 -33 -10 -71 -11 -106h-131v21c0 66 -3 234 213 232c118 -1 201 -74 201 -194c0 -83 -31 -146 -89 -205l-110 -114c-29 -30 -72 -79 -73 -130
h261v-110z" />
    <glyph glyph-name="three" unicode="3" 
d="M171 346v110c29 2 61 -1 88 11c38 18 43 55 43 92c0 57 -21 84 -67 84c-29 0 -65 -11 -67 -59v-53h-131c-8 139 54 222 197 222c141 0 204 -74 204 -193c0 -65 -25 -144 -98 -155v-2c66 -8 115 -67 113 -182c0 -147 -64 -236 -218 -236c-194 0 -209 142 -207 220v44h131
c3 -62 -10 -154 79 -154c77 0 75 72 75 142c0 23 -1 61 -16 79c-26 31 -87 30 -126 30z" />
    <glyph glyph-name="four" unicode="4" 
d="M126 262h140v304h-2zM250 738h156v-476h64v-110h-64v-152h-140v152h-243v110z" />
    <glyph glyph-name="five" unicode="5" 
d="M168 345h-124l19 393h361v-110h-253l-9 -160c34 33 62 42 109 42c164 0 187 -140 187 -259c0 -170 -49 -266 -207 -266c-170 0 -215 78 -214 251h131c2 -54 -6 -137 70 -141c83 -5 78 83 80 157c5 120 -29 148 -80 148c-35 0 -66 -23 -70 -55z" />
    <glyph glyph-name="six" unicode="6" 
d="M182 260c-1 -93 -3 -172 72 -165c73 1 65 69 65 165c0 54 7 135 -68 135c-69 0 -69 -73 -69 -135zM42 270v180c0 239 69 303 217 303c110 0 189 -50 185 -169h-130c-1 25 -3 63 -60 59c-79 -6 -72 -95 -74 -140v-48c23 24 45 50 110 50c119 0 169 -81 169 -235
c0 -188 -45 -285 -207 -285c-167 0 -212 109 -210 285z" />
    <glyph glyph-name="seven" unicode="7" 
d="M32 628v110h422v-101c-66 -117 -109 -239 -140 -363c-23 -89 -40 -182 -44 -274h-144c11 158 61 311 119 458c16 40 52 119 86 170h-299z" />
    <glyph glyph-name="eight" unicode="8" 
d="M181 208c0 -63 2 -111 71 -113c68 5 68 62 68 125c0 71 -3 132 -70 132c-73 -1 -69 -62 -69 -144zM251 452c60 0 62 62 62 107c0 57 -24 84 -60 84c-54 0 -65 -43 -65 -94c0 -45 6 -97 63 -97zM146 406c-60 32 -88 68 -88 174c0 80 52 173 194 173
c139 0 191 -66 191 -193c0 -79 -18 -125 -95 -156v-2c86 -18 112 -80 112 -189c0 -166 -78 -228 -205 -228c-159 0 -214 76 -214 227c0 111 29 160 105 194z" />
    <glyph glyph-name="nine" unicode="9" 
d="M319 478c1 93 3 172 -72 165c-73 -1 -65 -69 -65 -165c0 -54 -7 -135 68 -135c69 0 69 73 69 135zM459 468v-180c0 -239 -68 -303 -216 -303c-110 0 -189 50 -185 169h130c1 -25 4 -62 61 -59c79 0 71 95 73 140v48c-23 -24 -45 -50 -110 -50c-119 0 -170 81 -170 235
c0 188 46 285 208 285c167 0 211 -109 209 -285z" />
    <glyph glyph-name="colon" unicode=":" horiz-adv-x="278" 
d="M205 424h-132v132h132v-132zM205 0h-132v132h132v-132z" />
    <glyph glyph-name="semicolon" unicode=";" horiz-adv-x="278" 
d="M73 -145v44c47 5 73 47 70 101h-70v132h132v-129c0 -85 -44 -137 -132 -148zM205 424h-132v132h132v-132z" />
    <glyph glyph-name="less" unicode="&#x3c;" 
d="M162 249l297 -162v-111l-417 225v99l417 227v-111z" />
    <glyph glyph-name="equal" unicode="=" 
d="M475 401v-110h-449v110h449zM475 206v-110h-449v110h449z" />
    <glyph glyph-name="greater" unicode="&#x3e;" 
d="M42 87l297 162l-297 167v111l417 -227v-99l-417 -225v111z" />
    <glyph glyph-name="question" unicode="?" 
d="M176 553h-124c-8 147 66 215 195 215c118 0 193 -71 193 -186c0 -76 -23 -115 -69 -173c-24 -25 -45 -51 -69 -76c-31 -38 -36 -85 -36 -132h-117c-1 23 1 46 3 69c7 95 59 131 111 201c30 41 39 61 39 112c0 58 -17 81 -57 81c-30 0 -46 -6 -56 -23
c-15 -27 -10 -59 -13 -88zM147 130h127v-130h-127v130z" />
    <glyph glyph-name="at" unicode="@" horiz-adv-x="833" 
d="M654 148h96c-74 -102 -181 -166 -309 -166c-223 0 -403 169 -403 396c0 223 176 390 397 390c91 0 175 -25 244 -84c70 -59 116 -137 116 -232c0 -82 -23 -154 -80 -213c-40 -41 -121 -88 -180 -88c-25 0 -50 24 -42 63l-2 2c-43 -41 -82 -61 -123 -61
c-106 0 -169 82 -169 184c0 122 83 238 212 238c53 0 97 -18 127 -61l11 53h98l-53 -308c-4 -19 8 -25 20 -21c17 5 47 34 68 64c14 20 34 72 35 119c5 169 -116 271 -285 271c-185 0 -316 -133 -316 -316c0 -194 146 -322 333 -322c79 0 148 40 205 92zM504 370
c5 60 -19 119 -82 114c-62 -5 -109 -63 -113 -127c-4 -66 29 -103 71 -109c75 -11 119 66 124 122z" />
    <glyph glyph-name="A" unicode="A" horiz-adv-x="556" 
d="M159 0h-150l179 750h189l170 -750h-150l-37 190h-164zM260 513l-42 -213h120l-38 213c-7 35 -10 69 -14 104c-1 17 -3 34 -5 50h-2c-2 -16 -4 -33 -5 -50c-4 -35 -7 -69 -14 -104z" />
    <glyph glyph-name="B" unicode="B" horiz-adv-x="556" 
d="M205 110h30c29 0 59 -3 84 8c38 17 43 66 43 104c0 81 -16 115 -103 115h-54v-227zM205 447h26c34 0 78 -2 100 26c13 19 15 45 15 81c0 56 -12 84 -76 86h-65v-193zM312 0h-247v750h226c60 0 119 -4 159 -55c32 -41 37 -84 37 -135c0 -65 -14 -129 -90 -157v-2
c79 -11 109 -77 109 -174c0 -31 -2 -62 -10 -92c-30 -95 -84 -135 -184 -135z" />
    <glyph glyph-name="C" unicode="C" horiz-adv-x="556" 
d="M371 267h141c-1 -14 -2 -29 -3 -43c-7 -137 -53 -242 -209 -242c-230 0 -245 146 -245 346v107c6 191 21 333 245 333c125 -2 195 -66 205 -194c2 -19 4 -38 3 -57h-138c-6 48 -1 138 -70 138c-110 0 -101 -131 -101 -189v-208c0 -62 5 -163 101 -163c77 0 68 124 71 172
z" />
    <glyph glyph-name="D" unicode="D" horiz-adv-x="611" 
d="M212 110h61c125 0 133 66 133 283c0 177 -18 247 -102 247h-92v-530zM331 0h-259v750h292c34 0 102 -15 145 -85c32 -52 41 -135 41 -259c0 -148 0 -319 -115 -386c-31 -18 -69 -20 -104 -20z" />
    <glyph glyph-name="E" unicode="E" 
d="M458 0h-394v750h394v-110h-254v-189h234v-110h-234v-231h254v-110z" />
    <glyph glyph-name="F" unicode="F" 
d="M213 0h-140v750h397v-110h-257v-190h241v-110h-241v-340z" />
    <glyph glyph-name="G" unicode="G" horiz-adv-x="611" 
d="M55 328v107c6 191 21 333 245 333c120 -1 203 -32 235 -162c7 -30 6 -61 7 -91h-140c-2 76 -7 136 -102 140c-110 0 -101 -131 -101 -189v-208c0 -62 5 -163 101 -163c80 0 106 85 103 198h-97v110h233v-403h-105v86h-2c-28 -78 -81 -100 -132 -104
c-230 0 -245 146 -245 346z" />
    <glyph glyph-name="H" unicode="H" horiz-adv-x="611" 
d="M208 0h-140v750h140v-297h196v297h140v-750h-140v343h-196v-343z" />
    <glyph glyph-name="I" unicode="I" horiz-adv-x="278" 
d="M209 0h-140v750h140v-750z" />
    <glyph glyph-name="J" unicode="J" horiz-adv-x="444" 
d="M8 238h140v-93c1 -27 11 -50 45 -50c50 0 51 38 51 79v576h140v-547c0 -51 4 -124 -41 -172c-41 -44 -103 -49 -171 -49c-50 0 -106 19 -144 77c-17 27 -24 110 -20 179z" />
    <glyph glyph-name="K" unicode="K" horiz-adv-x="556" 
d="M208 0h-140v750h140v-333h2c22 59 58 125 88 180l82 153h158l-185 -322l194 -428h-158l-132 296l-49 -81v-215z" />
    <glyph glyph-name="L" unicode="L" 
d="M468 0h-400v750h140v-640h260v-110z" />
    <glyph glyph-name="M" unicode="M" horiz-adv-x="778" 
d="M207 236v-236h-140v750h223l75 -348c12 -57 20 -115 26 -173h2c7 74 12 124 22 173l75 348h222v-750h-140v236c0 149 3 298 12 447h-2l-150 -683h-85l-147 683h-5c9 -149 12 -298 12 -447z" />
    <glyph glyph-name="N" unicode="N" horiz-adv-x="611" 
d="M403 603v147h140v-750h-146l-109 267c-37 89 -67 180 -100 298h-2c5 -62 11 -138 15 -214c4 -75 7 -150 7 -210v-141h-140v750h145l109 -273c36 -87 66 -176 100 -298h2c-5 68 -10 141 -14 213s-7 144 -7 211z" />
    <glyph glyph-name="O" unicode="O" horiz-adv-x="611" 
d="M61 328v107c6 191 21 333 245 333s239 -142 245 -333v-107c0 -200 -15 -346 -245 -346s-245 146 -245 346zM205 466v-208c0 -62 5 -163 101 -163c100 0 101 103 101 175v192c0 60 3 193 -101 193c-110 0 -101 -131 -101 -189z" />
    <glyph glyph-name="P" unicode="P" horiz-adv-x="556" 
d="M208 640v-216h75c61 0 102 26 102 117c0 86 -34 99 -113 99h-64zM208 0h-140v750h286c134 0 175 -108 175 -213c0 -64 -17 -136 -70 -178c-44 -35 -103 -46 -157 -45h-94v-314z" />
    <glyph glyph-name="Q" unicode="Q" horiz-adv-x="611" 
d="M587 -5l-71 -66l-78 76c-34 -17 -74 -23 -132 -23c-230 0 -245 146 -245 346v107c6 191 21 333 245 333s239 -142 245 -333v-107c0 -96 -5 -198 -41 -256zM315 126l76 64l7 -7c5 23 8 51 8 75l1 208c0 58 9 189 -101 189s-101 -131 -101 -189v-208c0 -62 5 -163 101 -163
c14 0 26 2 36 5z" />
    <glyph glyph-name="R" unicode="R" horiz-adv-x="611" 
d="M231 323h-25v-323h-140v750h265c121 0 213 -42 213 -180c0 -82 -21 -168 -115 -181v-2c83 -11 108 -64 108 -136c0 -31 -4 -215 30 -237v-14h-154c-17 48 -14 140 -15 190c-1 46 0 109 -48 123c-38 11 -79 10 -119 10zM206 640v-207h110c46 3 82 33 82 108
c0 84 -35 98 -88 99h-104z" />
    <glyph glyph-name="S" unicode="S" horiz-adv-x="556" 
d="M489 522h-135c1 67 -5 133 -82 133c-47 0 -77 -19 -77 -70c0 -57 36 -79 80 -107c46 -29 131 -85 170 -123c48 -47 63 -92 63 -157c0 -142 -94 -216 -231 -216c-168 0 -228 94 -228 228v55h140v-44c-3 -73 19 -126 88 -126c59 0 87 31 87 88c0 44 -20 74 -56 99
c-73 57 -164 98 -221 173c-23 34 -36 75 -36 115c0 128 72 198 220 198c223 0 217 -172 218 -246z" />
    <glyph glyph-name="T" unicode="T" 
d="M17 640v110h467v-110h-163v-640h-140v640h-164z" />
    <glyph glyph-name="U" unicode="U" horiz-adv-x="611" 
d="M404 239v511h140v-523c0 -166 -54 -245 -237 -245c-185 0 -239 79 -239 245v523h140v-511c0 -72 5 -144 100 -144c91 0 96 72 96 144z" />
    <glyph glyph-name="V" unicode="V" horiz-adv-x="556" 
d="M307 269l79 481h150l-162 -750h-187l-166 750h150l88 -481c8 -42 13 -85 17 -128c2 -20 6 -41 6 -62h2c0 21 4 42 6 62c4 43 9 86 17 128z" />
    <glyph glyph-name="W" unicode="W" horiz-adv-x="833" 
d="M475 750l75 -388c14 -75 21 -171 31 -267h2c2 18 3 36 5 54c5 64 11 128 21 192l56 409h145l-139 -750h-168l-56 296c-15 79 -20 159 -30 239h-2c-10 -80 -15 -160 -30 -239l-50 -296h-168l-143 750h145l63 -409c10 -64 16 -128 21 -192c2 -18 3 -36 4 -54h2
c11 96 18 192 32 267l68 388h116z" />
    <glyph glyph-name="X" unicode="X" horiz-adv-x="556" 
d="M359 380l186 -380h-160l-80 183c-13 30 -23 62 -29 95h-2c-6 -50 -28 -95 -48 -140l-62 -138h-153l184 380l-177 370h157l76 -170c13 -31 26 -60 27 -94h3c4 49 27 93 46 137l54 127h158z" />
    <glyph glyph-name="Y" unicode="Y" horiz-adv-x="556" 
d="M165 750l79 -197c15 -37 27 -75 33 -115h2c10 58 29 100 46 142l67 170h153l-198 -431v-319h-140v319l-195 431h153z" />
    <glyph glyph-name="Z" unicode="Z" 
d="M33 0v112l241 465c12 22 22 45 39 66c-18 -3 -36 -3 -54 -3h-210v110h410v-112l-241 -465c-12 -22 -22 -45 -39 -66c18 3 36 3 54 3h235v-110h-435z" />
    <glyph glyph-name="bracketleft" unicode="[" horiz-adv-x="333" 
d="M280 -94h-199v844h199v-76h-89v-692h89v-76z" />
    <glyph glyph-name="backslash" unicode="\" horiz-adv-x="250" 
d="M51 750l236 -844h-87l-236 844h87z" />
    <glyph glyph-name="bracketright" unicode="]" horiz-adv-x="333" 
d="M53 750h199v-844h-199v76h89v692h-89v76z" />
    <glyph glyph-name="asciicircum" unicode="^" 
d="M114 326l-104 47l180 377h120l180 -377l-104 -47l-136 279z" />
    <glyph glyph-name="underscore" unicode="_" 
d="M500 -125h-500v50h500v-50z" />
    <glyph glyph-name="quoteleft" unicode="&#x2018;" horiz-adv-x="278" 
d="M197 766v-46c-43 -6 -67 -34 -64 -95h64v-130h-121v119c0 89 28 137 121 152z" />
    <glyph glyph-name="a" unicode="a" 
d="M440 0h-123c-9 18 -10 38 -8 58h-2c-15 -23 -32 -42 -52 -54c-19 -12 -40 -19 -62 -19c-105 0 -151 53 -151 169c0 129 91 160 193 202c55 23 75 48 64 94c-6 25 -26 29 -61 29c-59 0 -69 -31 -68 -82h-124c-1 107 34 182 197 182c177 0 188 -93 186 -167v-333
c0 -27 4 -53 11 -79zM299 236v61c-32 -22 -71 -44 -105 -72c-19 -16 -22 -44 -22 -68c0 -43 13 -72 61 -72c77 0 63 97 66 151z" />
    <glyph glyph-name="b" unicode="b" 
d="M194 354v-169c0 -65 21 -100 63 -100c40 0 54 43 57 97v188c-4 56 2 109 -59 109s-63 -80 -61 -125zM64 0v750h130v-180c0 -18 -2 -36 -3 -63h2c26 54 61 73 116 72c84 -2 132 -45 135 -200v-204c-3 -90 -25 -190 -135 -190c-54 3 -90 19 -119 75h-2v-60h-124z" />
    <glyph glyph-name="c" unicode="c" horiz-adv-x="444" 
d="M403 368h-130v63c-2 31 -17 48 -45 48c-50 0 -50 -57 -49 -126v-133c-3 -110 10 -130 49 -135c40 1 41 38 45 83v52h130v-52c0 -118 -49 -183 -178 -183c-115 0 -181 61 -176 211v183c-1 158 77 200 176 200c131 0 179 -82 178 -166v-45z" />
    <glyph glyph-name="d" unicode="d" 
d="M303 185v169c2 45 0 125 -61 125s-55 -53 -59 -109v-188c3 -54 17 -97 57 -97c42 0 63 35 63 100zM303 0v60h-2c-25 -57 -61 -72 -112 -75c-110 0 -133 100 -136 190v204c3 155 52 198 136 200c55 1 90 -18 116 -72h2c-3 17 -4 33 -4 50v193h130v-750h-130z" />
    <glyph glyph-name="e" unicode="e" 
d="M53 222v148c-6 133 62 209 190 209c181 0 200 -94 200 -248v-76h-260v-82c1 -74 29 -88 68 -88c48 0 62 35 60 106h130c5 -126 -47 -206 -180 -206c-150 0 -211 71 -208 237zM183 355h130v49c-1 57 -16 75 -68 75c-65 0 -62 -50 -62 -101v-23z" />
    <glyph glyph-name="f" unicode="f" horiz-adv-x="278" 
d="M71 469h-50v95h50v56c0 102 42 130 137 130h49v-104c-10 3 -21 6 -29 6c-19 0 -27 -9 -27 -22v-66h56v-95h-56v-469h-130v469z" />
    <glyph glyph-name="g" unicode="g" 
d="M303 354c2 45 0 125 -61 125s-55 -53 -59 -109v-188c3 -54 17 -97 57 -97c42 0 63 35 63 100v169zM59 -63h130c0 -12 6 -20 15 -25c10 -6 24 -8 40 -8c55 0 65 44 65 88v65l-2 2c-26 -54 -63 -71 -119 -74c-110 0 -132 99 -135 189v204c3 155 51 199 135 201
c59 1 95 -22 113 -73h2v58h130v-547c0 -115 -32 -207 -210 -207c-86 0 -157 32 -164 127z" />
    <glyph glyph-name="h" unicode="h" 
d="M191 0h-130v750h130v-244h2c37 66 89 73 117 73c74 0 134 -43 130 -144v-435h-130v386c0 55 -6 91 -55 93s-66 -44 -64 -104v-375z" />
    <glyph glyph-name="i" unicode="i" horiz-adv-x="278" 
d="M204 0h-130v564h130v-564zM204 632h-130v118h130v-118z" />
    <glyph glyph-name="j" unicode="j" horiz-adv-x="278" 
d="M31 -190v100c30 -2 48 2 48 30v624h130v-567c0 -59 11 -148 -53 -178c-19 -9 -66 -14 -125 -9zM209 632h-130v118h130v-118z" />
    <glyph glyph-name="k" unicode="k" horiz-adv-x="444" 
d="M178 0h-130v750h130v-339c0 -24 -1 -47 -2 -71h2l123 224h142l-142 -227l138 -337h-145l-81 230l-35 -58v-172z" />
    <glyph glyph-name="l" unicode="l" horiz-adv-x="278" 
d="M204 0h-130v750h130v-750z" />
    <glyph glyph-name="m" unicode="m" horiz-adv-x="778" 
d="M196 564v-58h2c29 62 82 71 124 73c48 1 112 -20 120 -73h2c25 49 66 73 130 73c96 0 138 -60 138 -120v-459h-130v381c0 51 -5 101 -62 98c-56 -3 -66 -42 -66 -108v-371h-130v388c0 50 -4 92 -64 91c-61 -1 -64 -46 -64 -108v-371h-130v564h130z" />
    <glyph glyph-name="n" unicode="n" 
d="M191 564v-58h2c29 65 87 73 117 73c74 0 134 -43 130 -144v-435h-130v376c0 55 -6 91 -55 93s-66 -44 -64 -104v-365h-130v564h130z" />
    <glyph glyph-name="o" unicode="o" 
d="M183 372v-188c0 -69 6 -99 69 -99c60 0 65 30 65 99v188c0 53 0 107 -65 107c-69 0 -69 -54 -69 -107zM252 -15c-171 -3 -200 81 -199 277c1 193 3 317 199 317c193 0 194 -124 195 -317c1 -196 -27 -280 -195 -277z" />
    <glyph glyph-name="p" unicode="p" 
d="M188 354v-169c0 -65 21 -100 63 -100c40 0 54 43 57 97v188c-4 56 2 109 -59 109s-63 -80 -61 -125zM188 564v-59h2c24 55 59 75 113 74c84 -2 132 -47 135 -202v-204c-3 -90 -25 -188 -135 -188c-51 3 -87 16 -119 73h-2v-247h-124v753h130z" />
    <glyph glyph-name="q" unicode="q" 
d="M300 185v169c2 45 0 125 -61 125s-55 -53 -59 -109v-188c3 -54 17 -97 57 -97c42 0 63 35 63 100zM430 564v-752h-130v248h-2c-25 -56 -61 -72 -113 -75c-110 0 -132 100 -135 190v204c3 155 51 198 135 200c54 1 89 -17 113 -72h2v57h130z" />
    <glyph glyph-name="r" unicode="r" horiz-adv-x="333" 
d="M185 564v-100h2c16 41 32 64 51 80c37 31 62 29 81 30v-154c-72 7 -127 -11 -129 -94v-326h-130v564h125z" />
    <glyph glyph-name="s" unicode="s" horiz-adv-x="444" 
d="M29 186h130c-10 -104 30 -101 60 -101c37 0 63 27 54 63c-2 32 -39 50 -64 67l-71 49c-65 45 -107 97 -107 178c0 87 69 137 194 137c126 0 184 -66 181 -187h-130c3 63 -15 87 -60 87c-31 0 -55 -14 -55 -46c0 -33 24 -48 49 -65l106 -72c33 -19 85 -73 89 -111
c11 -98 -13 -200 -193 -200c-69 0 -198 29 -183 201z" />
    <glyph glyph-name="t" unicode="t" horiz-adv-x="278" 
d="M252 100v-102c-77 -9 -185 -16 -185 89v382h-53v95h52v155h131v-155h55v-95h-55v-350c3 -24 39 -21 55 -19z" />
    <glyph glyph-name="u" unicode="u" 
d="M307 0v84h-2c-20 -67 -58 -98 -121 -99c-103 0 -126 53 -126 147v432h130v-386c0 -25 -1 -53 13 -75c11 -12 23 -18 40 -18c61 0 60 69 60 113v366h130v-564h-124z" />
    <glyph glyph-name="v" unicode="v" horiz-adv-x="444" 
d="M142 0l-132 564h140l55 -316c11 -51 16 -140 18 -167h2c2 27 7 116 18 167l56 316h135l-130 -564h-162z" />
    <glyph glyph-name="w" unicode="w" horiz-adv-x="667" 
d="M381 564l63 -346c7 -40 11 -80 13 -121h3c0 25 8 108 11 125l43 342h131l-114 -564h-142l-43 228c-9 47 -13 94 -17 142h-4c-2 -45 -6 -90 -13 -134l-40 -236h-145l-116 564h137l46 -344c3 -17 11 -100 11 -125h2c2 41 6 81 13 121l54 348h107z" />
    <glyph glyph-name="x" unicode="x" horiz-adv-x="444" 
d="M157 288l-142 276h153l43 -102c5 -17 11 -34 14 -51h2c4 18 10 35 16 53l46 100h144l-141 -273l144 -291h-146l-39 91c-12 27 -22 54 -26 83h-2c-5 -32 -16 -61 -29 -90l-37 -84h-149z" />
    <glyph glyph-name="y" unicode="y" horiz-adv-x="444" 
d="M5 564h137l57 -299c9 -50 14 -100 19 -150h2c4 49 11 98 20 146l57 303h132l-137 -572c-33 -128 -36 -208 -216 -182v101c21 0 77 -11 77 25c0 20 -7 52 -12 72z" />
    <glyph glyph-name="z" unicode="z" horiz-adv-x="389" 
d="M367 471l-206 -371h206v-100h-344v102l198 362h-194v100h340v-93z" />
    <glyph glyph-name="braceleft" unicode="{" horiz-adv-x="274" 
d="M43 436v184c0 87 32 130 123 130h74v-2c-62 -14 -75 -54 -75 -110v-184c0 -70 -14 -111 -82 -126v-2c71 -10 82 -71 82 -135v-172c0 -50 13 -93 75 -109v-2h-65c-107 0 -132 49 -132 148v162c0 58 -17 92 -75 107v2c58 8 75 58 75 109z" />
    <glyph glyph-name="bar" unicode="|" horiz-adv-x="250" 
d="M75 750h100v-1000h-100v1000z" />
    <glyph glyph-name="braceright" unicode="}" horiz-adv-x="274" 
d="M231 618v-183c0 -52 17 -101 75 -109v-2c-66 -8 -75 -50 -75 -108v-162c0 -100 -23 -148 -129 -148h-68v2c60 14 75 53 75 110v171c0 67 9 114 82 135v2c-68 15 -82 57 -82 126v185c0 59 -19 99 -75 110v3h68c94 -1 129 -38 129 -132z" />
    <glyph glyph-name="asciitilde" unicode="~" 
d="M418 359l57 -73c-31 -54 -63 -117 -129 -117c-60 0 -154 66 -186 66c-41 0 -59 -48 -77 -82l-57 74c28 57 68 124 133 124s145 -66 187 -66c37 0 54 44 72 74z" />
    <glyph glyph-name="exclamdown" unicode="&#xa1;" horiz-adv-x="333" 
d="M232 -170h-130v210c-2 58 1 115 6 173s12 116 15 173h88c2 -57 8 -115 13 -173s9 -115 8 -173v-210zM102 447v132h130v-132h-130z" />
    <glyph glyph-name="cent" unicode="&#xa2;" 
d="M194 346v-209h2l56 332l-9 1c-50 0 -50 -55 -49 -124zM298 218h130c1 -28 -1 -56 -3 -81c-11 -111 -94 -173 -206 -151l-20 -108h-69l24 126c-55 28 -85 89 -82 190v183c-1 174 121 223 200 198l17 96h70l-21 -110c66 -29 91 -89 90 -150v-45h-130v79h-3l-61 -343
c12 -12 34 -10 50 -2c11 14 12 38 14 66v52z" />
    <glyph glyph-name="sterling" unicode="&#xa3;" 
d="M123 337h-86v59h63c-31 49 -46 108 -46 166c0 135 98 206 224 206c74 0 139 -27 177 -95c22 -43 20 -93 20 -141h-128c-1 63 1 126 -79 126c-65 0 -83 -49 -83 -106c0 -47 28 -113 46 -156h146v-59h-124c7 -18 9 -40 9 -59c0 -80 -58 -149 -121 -190l3 -2
c38 21 62 31 97 31c38 2 94 -14 120 -18c33 -5 68 10 98 31l28 -109c-34 -23 -85 -36 -126 -36c-48 0 -89 16 -131 25c-58 14 -97 7 -159 -25l-36 94c66 37 104 111 104 188c0 24 -4 49 -16 70z" />
    <glyph glyph-name="fraction" unicode="&#x2044;" horiz-adv-x="167" 
d="M-94 0h-75l425 738h75z" />
    <glyph glyph-name="yen" unicode="&#xa5;" 
d="M518 750l-198 -431v-60h108v-50h-108v-61h108v-50h-108v-98h-140v98h-112v50h112v61h-112v50h112v60l-198 431h156l79 -197c15 -37 27 -75 34 -115h2c7 40 19 78 34 115l79 197h152z" />
    <glyph glyph-name="florin" unicode="&#x192;" 
d="M492 747l-22 -103c-13 7 -27 12 -42 12c-72 0 -70 -72 -79 -126l-5 -31h111v-95h-124l-48 -295c-12 -71 -28 -161 -61 -224c-24 -46 -77 -70 -126 -70c-30 0 -58 5 -87 12l17 108c25 -19 68 -23 84 9c13 26 18 54 23 82l65 378h-111v95h126l16 78c19 99 63 186 178 186
c26 0 53 -7 78 -14c2 -1 5 -1 7 -2z" />
    <glyph glyph-name="section" unicode="&#xa7;" 
d="M305 320l-114 93c-20 -9 -52 -41 -36 -83c6 -16 15 -30 29 -40l123 -100c22 12 38 37 38 63c0 30 -19 48 -40 67zM54 12h125c-1 -54 12 -93 73 -93c29 0 53 21 59 49c10 44 -26 79 -58 103l-119 93c-65 51 -97 84 -97 172c0 58 28 113 86 145c-40 29 -51 65 -51 125
c0 78 59 162 190 162c109 0 183 -64 176 -176h-123c2 22 -2 41 -12 55c-11 13 -27 21 -51 21c-31 0 -58 -16 -58 -55c0 -36 19 -56 46 -77l137 -108c54 -41 86 -84 86 -155c0 -60 -31 -115 -83 -147c31 -22 57 -86 57 -134c0 -104 -96 -175 -196 -175
c-104 0 -159 52 -180 123c-7 24 -6 48 -7 72z" />
    <glyph glyph-name="currency" unicode="&#xa4;" 
d="M9 137l42 44c-23 43 -35 77 -35 128c0 49 11 88 35 129l-42 42l76 80l42 -43c36 22 82 38 123 38c44 0 89 -14 127 -38l43 43l72 -80l-41 -42c24 -40 36 -80 36 -128c0 -45 -11 -92 -36 -129l41 -44l-72 -79l-43 43c-38 -23 -79 -38 -123 -38c-45 0 -89 13 -127 38
l-42 -43zM252 437c-66 0 -118 -62 -118 -127s52 -129 118 -129c67 0 117 64 117 129s-50 127 -117 127z" />
    <glyph glyph-name="quotesingle" unicode="'" horiz-adv-x="250" 
d="M185 468h-119v271h119v-271z" />
    <glyph glyph-name="quotedblleft" unicode="&#x201c;" 
d="M208 766v-46c-43 -6 -67 -34 -64 -95h64v-130h-121v119c0 89 28 137 121 152zM405 766v-46c-43 -6 -67 -34 -64 -95h64v-130h-121v119c0 89 28 137 121 152z" />
    <glyph glyph-name="guillemotleft" unicode="&#xab;" 
d="M231 62l-157 142v102l157 141v-112l-94 -79l94 -81v-113zM419 62l-159 142v102l159 141v-112l-96 -79l96 -81v-113z" />
    <glyph glyph-name="guilsinglleft" unicode="&#x2039;" horiz-adv-x="278" 
d="M215 62l-157 142v102l157 141v-112l-95 -75l95 -85v-113z" />
    <glyph glyph-name="guilsinglright" unicode="&#x203a;" horiz-adv-x="278" 
d="M63 62v113l94 81l-94 79v112l157 -141v-102z" />
    <glyph glyph-name="endash" unicode="&#x2013;" 
d="M500 259h-500v110h500v-110z" />
    <glyph glyph-name="dagger" unicode="&#x2020;" 
d="M188 422h-151v112h151v234h128v-234h147v-112h-147v-577h-128v577z" />
    <glyph glyph-name="daggerdbl" unicode="&#x2021;" 
d="M188 77h-153v113h153v230h-153v113h153v235h128v-235h150v-113h-150v-230h150v-113h-150v-238h-128v238z" />
    <glyph glyph-name="periodcentered" unicode="&#xb7;" horiz-adv-x="333" 
d="M101 315h132v-132h-132v132z" />
    <glyph glyph-name="paragraph" unicode="&#xb6;" horiz-adv-x="550" 
d="M366 -116v748h-68v-748h-118v517c-104 0 -157 71 -157 171c0 135 75 178 200 178h303v-118h-42v-748h-118z" />
    <glyph glyph-name="bullet" unicode="&#x2022;" horiz-adv-x="420" 
d="M398 375c0 -104 -85 -189 -189 -189s-187 85 -187 189c0 103 83 187 187 187s189 -84 189 -187z" />
    <glyph glyph-name="quotesinglbase" unicode="&#x201a;" horiz-adv-x="278" 
d="M87 -138v46c54 11 65 42 63 94h-63v130h120v-119c0 -91 -27 -132 -120 -151z" />
    <glyph glyph-name="quotedblbase" unicode="&#x201e;" 
d="M293 -138v46c21 5 39 12 52 30c11 20 11 42 11 64h-63v130h120v-119c0 -91 -27 -132 -120 -151zM96 -138v46c54 11 65 42 63 94h-63v130h120v-119c0 -91 -27 -132 -120 -151z" />
    <glyph glyph-name="quotedblright" unicode="&#x201d;" 
d="M292 479v46c43 6 67 34 64 95h-64v130h121v-119c0 -89 -28 -137 -121 -152zM95 479v46c43 6 67 34 64 95h-64v130h121v-119c0 -89 -28 -137 -121 -152z" />
    <glyph glyph-name="guillemotright" unicode="&#xbb;" 
d="M81 62v113l96 85l-96 75v112l159 -141v-102zM269 62v113l95 85l-95 75v112l157 -141v-102z" />
    <glyph glyph-name="ellipsis" unicode="&#x2026;" horiz-adv-x="1000" 
d="M233 0h-132v132h132v-132zM566 0h-132v132h132v-132zM899 0h-132v132h132v-132z" />
    <glyph glyph-name="perthousand" unicode="&#x2030;" horiz-adv-x="1111" 
d="M579 366c146 0 154 -88 154 -183s-8 -183 -154 -183c-144 0 -153 88 -153 183s9 183 153 183zM580 293c-58 0 -58 -43 -58 -110s0 -110 58 -110c57 0 57 43 57 110s0 110 -57 110zM937 366c146 0 154 -88 154 -183s-8 -183 -154 -183c-144 0 -153 88 -153 183
s9 183 153 183zM938 293c-58 0 -58 -43 -58 -110s0 -110 58 -110c57 0 57 43 57 110s0 110 -57 110zM174 736c146 0 154 -88 154 -183s-8 -183 -154 -183c-144 0 -153 88 -153 183s9 183 153 183zM175 663c-58 0 -58 -43 -58 -110s0 -110 58 -110c57 0 57 43 57 110
s0 110 -57 110zM246 -18h-73l339 766h72z" />
    <glyph glyph-name="questiondown" unicode="&#xbf;" 
d="M324 25h124c8 -147 -66 -215 -195 -215c-118 0 -193 71 -193 186c0 76 23 115 69 173c24 25 45 51 69 76c31 38 36 85 36 132h117c1 -23 -1 -46 -3 -69c-7 -95 -59 -131 -111 -201c-30 -41 -39 -61 -39 -112c0 -58 17 -81 57 -81c30 0 46 6 56 23c15 27 10 59 13 88z
M353 450h-128v129h128v-129z" />
    <glyph glyph-name="grave" unicode="`" horiz-adv-x="333" 
d="M1 775h155l94 -146h-101z" />
    <glyph glyph-name="acute" unicode="&#xb4;" horiz-adv-x="333" 
d="M83 629l94 146h155l-148 -146h-101z" />
    <glyph glyph-name="circumflex" unicode="&#x2c6;" horiz-adv-x="333" 
d="M103 790h125l115 -146h-114l-63 82l-64 -82h-112z" />
    <glyph glyph-name="tilde" unicode="&#x2dc;" horiz-adv-x="333" 
d="M285 764h65c-18 -101 -74 -121 -117 -121c-20 0 -69 16 -88 22c-22 8 -52 20 -73 8c-16 -8 -25 -35 -26 -37h-62c6 83 70 123 114 123c33 0 46 -7 76 -18c13 -5 48 -19 61 -19c28 0 43 15 50 42z" />
    <glyph glyph-name="macron" unicode="&#xaf;" horiz-adv-x="333" 
d="M340 666h-346v74h346v-74z" />
    <glyph glyph-name="breve" unicode="&#x2d8;" horiz-adv-x="333" 
d="M270 780h65c-12 -94 -74 -145 -168 -145c-108 0 -170 61 -168 145h65c5 -48 45 -70 98 -70c71 0 101 22 108 70z" />
    <glyph glyph-name="dotaccent" unicode="&#x2d9;" horiz-adv-x="333" 
d="M230 644h-127v115h127v-115z" />
    <glyph glyph-name="dieresis" unicode="&#xa8;" horiz-adv-x="333" 
d="M132 644h-127v115h127v-115zM328 644h-128v115h128v-115z" />
    <glyph glyph-name="ring" unicode="&#x2da;" horiz-adv-x="333" 
d="M167 632c-58 0 -107 48 -107 106s49 107 107 107c59 0 106 -49 106 -107c0 -59 -47 -106 -106 -106zM167 796c-32 0 -58 -26 -58 -58c0 -31 28 -57 58 -57s58 27 58 57c0 31 -27 58 -58 58z" />
    <glyph glyph-name="cedilla" unicode="&#xb8;" horiz-adv-x="333" 
d="M39 -203l19 42c32 -10 53 -16 86 -16c23 0 48 21 44 46c-3 11 -9 20 -20 24c-20 10 -45 4 -65 -3l-21 20l59 90h53l-42 -61l2 -2c8 4 20 6 31 6c25 0 50 -6 68 -24c16 -12 22 -34 22 -53s-4 -29 -13 -46c-37 -47 -102 -55 -158 -44c-22 6 -43 14 -65 21z" />
    <glyph glyph-name="hungarumlaut" unicode="&#x2dd;" horiz-adv-x="333" 
d="M-17 634l94 146h155l-148 -146h-101zM198 634l94 146h155l-148 -146h-101z" />
    <glyph glyph-name="ogonek" unicode="&#x2db;" horiz-adv-x="333" 
d="M278 -104v-86c-12 -6 -43 -15 -74 -15c-61 0 -116 31 -116 99c0 48 47 81 83 106h68v-2c-31 -16 -63 -49 -63 -76c0 -25 21 -44 46 -44c18 0 39 12 56 18z" />
    <glyph glyph-name="caron" unicode="&#x2c7;" horiz-adv-x="333" 
d="M343 780l-115 -146h-125l-113 146h112l64 -82l63 82h114z" />
    <glyph glyph-name="emdash" unicode="&#x2014;" horiz-adv-x="1000" 
d="M1000 259h-1000v110h1000v-110z" />
    <glyph glyph-name="AE" unicode="&#xc6;" horiz-adv-x="778" 
d="M365 0v192h-172l-65 -192h-150l288 750h484v-110h-245v-190h229v-110h-229v-230h245v-110h-385zM365 611h-27l-107 -309h134v309z" />
    <glyph glyph-name="ordfeminine" unicode="&#xaa;" horiz-adv-x="300" 
d="M189 562v37c-63 -39 -82 -39 -82 -84c0 -26 8 -44 39 -44c50 0 41 59 43 91zM105 659h-80c-1 64 22 109 128 109c115 0 122 -56 121 -100v-200c0 -16 2 -32 7 -47h-80c-6 10 -7 22 -5 34h-2c-14 -25 -43 -43 -74 -43c-68 0 -98 31 -98 101c0 77 59 96 125 121
c36 14 49 29 42 57c-4 15 -17 21 -40 21c-38 0 -44 -23 -44 -53z" />
    <glyph glyph-name="Lslash" unicode="&#x141;" 
d="M474 0h-400v290l-74 -59v127l74 59v333h140v-226l103 88v-128l-103 -88v-286h260v-110z" />
    <glyph glyph-name="Oslash" unicode="&#xd8;" horiz-adv-x="611" 
d="M578 744l-58 -92c30 -61 29 -145 31 -217v-107c0 -200 -15 -346 -245 -346c-86 0 -133 12 -175 54l-46 -74l-49 30l59 94c-30 60 -34 154 -34 242v107c6 191 21 333 245 333c78 0 129 -8 178 -60l44 71zM206 275l187 300c-3 43 -21 80 -87 80c-108 0 -101 -123 -101 -241
c0 -71 -2 -113 -1 -139h2zM405 478l-190 -306c9 -46 30 -77 91 -77c108 0 101 127 101 206c0 58 2 118 0 177h-2z" />
    <glyph glyph-name="OE" unicode="&#x152;" horiz-adv-x="833" 
d="M405 226v309c0 61 -20 125 -97 120c-120 -9 -106 -206 -106 -284c0 -74 -14 -276 103 -276c88 0 100 57 100 131zM545 110h247v-110h-379v73h-2c-35 -61 -105 -91 -131 -91c-239 0 -219 284 -219 453c-2 144 38 333 217 333c48 0 106 -20 135 -77h2v2l2 -2v59h375v-110
h-247v-190h229v-110h-229v-230z" />
    <glyph glyph-name="ordmasculine" unicode="&#xba;" horiz-adv-x="300" 
d="M106 648v-113c0 -31 0 -63 43 -63c44 0 44 32 44 63v113c0 42 -4 60 -44 60s-43 -18 -43 -60zM150 768c126 0 127 -74 128 -190c0 -117 -18 -168 -127 -166c-111 -2 -130 49 -129 166c0 116 2 190 128 190z" />
    <glyph glyph-name="ae" unicode="&#xe6;" horiz-adv-x="722" 
d="M176 400h-130c-1 30 4 58 13 87c24 77 111 92 185 92c46 0 91 -10 130 -36c36 29 74 36 117 36c101 0 175 -39 180 -175v-145h-245v-50c0 -47 -6 -124 60 -124c35 0 52 20 55 54v53h131c3 -110 -34 -207 -186 -207c-64 0 -100 15 -136 59c-28 -43 -82 -59 -131 -59
c-110 0 -175 39 -175 158c0 93 24 129 104 174c77 44 152 47 152 113c0 40 -24 49 -60 49c-60 0 -62 -31 -64 -79zM296 182v114c-54 -39 -122 -54 -122 -136c0 -54 14 -75 52 -75c51 0 71 34 70 97zM426 359h115v56c0 56 -27 64 -57 64c-38 0 -54 -29 -58 -64v-56z" />
    <glyph glyph-name="dotlessi" unicode="&#x131;" horiz-adv-x="278" 
d="M204 0h-130v564h130v-564z" />
    <glyph glyph-name="lslash" unicode="&#x142;" horiz-adv-x="278" 
d="M74 0v362l-72 -50v95l72 51v292h130v-238l68 48v-96l-68 -48v-416h-130z" />
    <glyph glyph-name="oslash" unicode="&#xf8;" 
d="M315 338l-130 -196c4 -40 19 -57 67 -57c60 0 65 30 65 99v154h-2zM390 539l53 78l49 -35l-66 -99c21 -54 21 -130 21 -221c1 -196 -26 -280 -194 -277c-64 -1 -108 10 -139 35l-54 -78l-53 34l69 99c-18 45 -24 107 -23 187c1 193 4 317 199 317c65 0 109 -14 138 -40z
M185 219l130 195c-3 36 -15 65 -63 65c-69 0 -69 -54 -69 -107v-153h2z" />
    <glyph glyph-name="oe" unicode="&#x153;" horiz-adv-x="722" 
d="M678 363v-105h-247v-58c-1 -93 15 -115 55 -115c42 0 62 25 62 65v42h130c1 -147 -53 -207 -203 -207c-40 0 -83 19 -110 53c-38 -40 -89 -53 -120 -53c-171 -3 -200 81 -199 277c1 193 3 319 199 317c45 -1 78 -14 120 -57c33 47 88 57 138 57c29 0 94 -6 127 -52
c35 -49 48 -106 48 -164zM429 358h119v35c0 59 -14 86 -61 86c-57 0 -58 -60 -58 -101v-20zM176 372v-157c1 -117 19 -129 61 -130c43 0 66 19 64 138v165c-3 68 -15 91 -64 91c-47 0 -64 -32 -61 -107z" />
    <glyph glyph-name="germandbls" unicode="&#xdf;" 
d="M354 436v-2c67 -17 90 -90 91 -210c1 -106 -22 -223 -117 -238c-31 -5 -66 4 -92 14v92c11 -5 21 -6 29 -6c42 1 50 54 50 100l-1 117c0 48 -17 75 -69 77v95c42 4 61 6 61 70v61c0 34 -18 62 -58 62c-58 0 -58 -73 -58 -114v-554h-130v533c-1 88 4 235 190 235
c135 0 183 -100 183 -189c0 -90 -32 -129 -79 -143z" />
    <glyph glyph-name="onesuperior" unicode="&#xb9;" horiz-adv-x="300" 
d="M160 300v312h-110v60c63 1 115 16 134 78h67v-450h-91z" />
    <glyph glyph-name="logicalnot" unicode="&#xac;" 
d="M365 105v186h-339v110h449v-296h-110z" />
    <glyph glyph-name="mu" unicode="&#xb5;" horiz-adv-x="504" 
d="M431 0h-124v84h-2c-20 -65 -56 -97 -117 -79v-194h-130v753h130v-386c0 -25 -1 -53 13 -75c11 -12 23 -18 40 -18c61 0 60 69 60 113v366h130v-564z" />
    <glyph glyph-name="trademark" unicode="&#x2122;" horiz-adv-x="860" 
d="M774 750v-404h-80v326h-2l-105 -326h-47l-105 326h-2v-326h-80v404h129l81 -239h2l80 239h129zM310 750v-78h-115v-326h-80v326h-114v78h309z" />
    <glyph glyph-name="Eth" unicode="&#xd0;" horiz-adv-x="611" 
d="M212 640v-167h105v-67h-105v-296h92c102 0 102 114 102 265s0 265 -102 265h-92zM72 0v406h-52v67h52v277h292c34 0 102 -15 145 -85c32 -52 41 -135 41 -259c0 -148 0 -319 -115 -386c-31 -18 -69 -20 -104 -20h-259z" />
    <glyph glyph-name="onehalf" unicode="&#xbd;" horiz-adv-x="750" 
d="M183 0h-75l425 738h75zM122 300v312h-110v60c63 1 115 16 134 78h67v-450h-91zM681 212l-72 -68c-19 -18 -46 -47 -47 -78h170v-66h-267c1 19 3 50 8 76c6 31 30 72 86 127l44 43c29 29 45 44 45 86c0 41 -18 54 -44 54c-19 0 -36 -6 -42 -22c-9 -20 -7 -43 -7 -64h-85
v13c0 39 -2 140 138 139c77 -1 131 -45 131 -117c0 -49 -20 -87 -58 -123z" />
    <glyph glyph-name="plusminus" unicode="&#xb1;" 
d="M195 379v134h110v-134h170v-110h-170v-134h-110v134h-169v110h169zM26 -15v110h449v-110h-449z" />
    <glyph glyph-name="Thorn" unicode="&#xde;" horiz-adv-x="556" 
d="M208 522v-216h75c75 0 102 32 102 108s-27 108 -102 108h-75zM68 0v750h140v-118h134c146 0 187 -108 187 -218c0 -150 -101 -218 -199 -218h-122v-196h-140z" />
    <glyph glyph-name="onequarter" unicode="&#xbc;" horiz-adv-x="750" 
d="M505 157h91v183h-2zM586 443h101v-286h42v-66h-42v-91h-91v91h-158v66zM206 0h-75l425 738h75zM130 300v312h-110v60c63 1 115 16 134 78h67v-450h-91z" />
    <glyph glyph-name="divide" unicode="&#xf7;" 
d="M26 194v110h449v-110h-449zM313 377h-127v115h127v-115zM313 6h-127v115h127v-115z" />
    <glyph glyph-name="brokenbar" unicode="&#xa6;" horiz-adv-x="250" 
d="M75 -175v350h100v-350h-100zM175 675v-350h-100v350h100z" />
    <glyph glyph-name="degree" unicode="&#xb0;" horiz-adv-x="400" 
d="M350 600c0 -83 -68 -150 -150 -150c-83 0 -150 67 -150 150c-1 82 67 150 150 150c82 0 150 -68 150 -150zM129 600c0 -40 32 -71 72 -71c39 0 70 31 70 71c0 39 -31 71 -71 71c-39 0 -72 -32 -71 -71z" />
    <glyph glyph-name="thorn" unicode="&#xfe;" 
d="M308 194v188c0 56 -14 97 -59 97c-53 0 -61 -50 -61 -125v-169c0 -65 21 -100 63 -100c40 0 57 43 57 109zM58 -189v939h130v-245h2c24 55 59 74 113 74c84 0 135 -49 135 -209v-188c0 -98 -25 -197 -135 -197c-51 0 -87 16 -113 67h-2v-241h-130z" />
    <glyph glyph-name="threequarters" unicode="&#xbe;" horiz-adv-x="750" 
d="M515 157h91v183h-2zM596 443h101v-286h42v-66h-42v-91h-91v91h-158v66zM234 0h-75l425 738h75zM105 507v66c19 1 40 -1 57 6c25 11 28 33 28 55c0 35 -14 51 -43 51c-19 0 -43 -7 -44 -36v-31h-85c-2 42 6 75 27 98s55 35 101 35c92 0 132 -45 132 -116
c0 -39 -16 -86 -63 -93v-2c43 -4 75 -39 73 -108c0 -89 -41 -142 -141 -142c-127 0 -136 85 -135 132v26h85c2 -37 -6 -92 51 -92c51 0 49 43 49 85c0 14 0 37 -10 48c-17 18 -57 18 -82 18z" />
    <glyph glyph-name="twosuperior" unicode="&#xb2;" horiz-adv-x="300" 
d="M229 512l-72 -68c-19 -18 -46 -47 -47 -78h170v-66h-267c1 19 3 50 8 76c6 31 30 72 86 127l44 43c29 29 45 44 45 86c0 41 -18 54 -44 54c-19 0 -36 -6 -42 -22c-9 -20 -7 -43 -7 -64h-85v13c0 39 -2 140 138 139c77 -1 131 -45 131 -117c0 -49 -20 -87 -58 -123z" />
    <glyph glyph-name="registered" unicode="&#xae;" horiz-adv-x="830" 
d="M416 -18c-218 0 -394 176 -394 394c0 216 176 392 394 392c216 0 392 -176 392 -392c0 -218 -176 -394 -392 -394zM416 56c176 0 318 142 318 320c0 176 -142 318 -318 318c-177 0 -320 -142 -320 -318c0 -178 143 -320 320 -320zM508 341l103 -180h-97l-94 180h-83v-180
h-83v425h205c36 0 83 -1 115 -21c38 -25 50 -66 50 -110c0 -77 -41 -109 -116 -114zM337 404h124c47 -1 80 10 80 64c0 55 -60 55 -101 55h-103v-119z" />
    <glyph glyph-name="minus" unicode="&#x2212;" 
d="M26 194v110h449v-110h-449z" />
    <glyph glyph-name="eth" unicode="&#xf0;" 
d="M183 346v-162c0 -69 6 -99 67 -99c62 0 67 30 67 99v162c0 53 0 107 -67 107s-67 -54 -67 -107zM112 622l56 44c-21 15 -45 27 -69 39l87 74c24 -10 51 -24 73 -40l50 40l45 -35l-50 -40c68 -48 143 -140 143 -334v-108c0 -196 -27 -277 -197 -277
c-169 0 -197 81 -197 277c0 200 35 282 159 282c39 0 71 -8 90 -26l2 2c-12 43 -57 93 -88 114l-59 -47z" />
    <glyph glyph-name="multiply" unicode="&#xd7;" 
d="M170 249l-144 144l78 78l144 -144l149 149l78 -78l-149 -149l149 -149l-78 -78l-149 149l-144 -144l-78 78z" />
    <glyph glyph-name="threesuperior" unicode="&#xb3;" horiz-adv-x="300" 
d="M105 507v66c19 1 40 -1 57 6c25 11 28 33 28 55c0 35 -14 51 -43 51c-19 0 -43 -7 -44 -36v-31h-85c-2 42 6 75 27 98s55 35 101 35c92 0 132 -45 132 -116c0 -39 -16 -86 -63 -93v-2c43 -4 75 -39 73 -108c0 -89 -41 -142 -141 -142c-127 0 -136 85 -135 132v26h85
c2 -37 -6 -92 51 -92c51 0 49 43 49 85c0 14 0 37 -10 48c-17 18 -57 18 -82 18z" />
    <glyph glyph-name="copyright" unicode="&#xa9;" horiz-adv-x="830" 
d="M416 768c217 0 392 -174 392 -391c0 -219 -175 -395 -392 -395c-218 0 -394 176 -394 395c0 217 176 391 394 391zM416 57c174 0 318 143 318 320c0 175 -144 317 -318 317c-177 0 -320 -142 -320 -317c0 -177 143 -320 320 -320zM527 306h89c-11 -95 -92 -153 -184 -153
c-131 0 -217 100 -217 227c0 130 82 226 215 226c95 0 169 -55 186 -149h-89c-9 49 -48 77 -98 77c-84 0 -126 -74 -126 -152c0 -75 47 -157 129 -157c48 0 92 33 95 81z" />
    <glyph glyph-name="Aacute" unicode="&#xc1;" horiz-adv-x="556" 
d="M159 0h-150l179 750h189l170 -750h-150l-37 190h-164zM260 513l-42 -213h120l-38 213c-7 35 -10 69 -14 104c-1 17 -3 34 -5 50h-2c-2 -16 -4 -33 -5 -50c-4 -35 -7 -69 -14 -104zM195 815l94 146h155l-148 -146h-101z" />
    <glyph glyph-name="Acircumflex" unicode="&#xc2;" horiz-adv-x="556" 
d="M159 0h-150l179 750h189l170 -750h-150l-37 190h-164zM260 513l-42 -213h120l-38 213c-7 35 -10 69 -14 104c-1 17 -3 34 -5 50h-2c-2 -16 -4 -33 -5 -50c-4 -35 -7 -69 -14 -104zM205 956h125l115 -146h-114l-63 82l-64 -82h-112z" />
    <glyph glyph-name="Adieresis" unicode="&#xc4;" horiz-adv-x="556" 
d="M159 0h-150l179 750h189l170 -750h-150l-37 190h-164zM260 513l-42 -213h120l-38 213c-7 35 -10 69 -14 104c-1 17 -3 34 -5 50h-2c-2 -16 -4 -33 -5 -50c-4 -35 -7 -69 -14 -104zM244 830h-127v115h127v-115zM440 830h-128v115h128v-115z" />
    <glyph glyph-name="Agrave" unicode="&#xc0;" horiz-adv-x="556" 
d="M159 0h-150l179 750h189l170 -750h-150l-37 190h-164zM260 513l-42 -213h120l-38 213c-7 35 -10 69 -14 104c-1 17 -3 34 -5 50h-2c-2 -16 -4 -33 -5 -50c-4 -35 -7 -69 -14 -104zM113 961h155l94 -146h-101z" />
    <glyph glyph-name="Aring" unicode="&#xc5;" horiz-adv-x="556" 
d="M159 0h-150l179 750h189l170 -750h-150l-37 190h-164zM260 513l-42 -213h120l-38 213c-7 35 -10 69 -14 104c-1 17 -3 34 -5 50h-2c-2 -16 -4 -33 -5 -50c-4 -35 -7 -69 -14 -104zM279 778c-58 0 -107 48 -107 106s49 107 107 107c59 0 106 -49 106 -107
c0 -59 -47 -106 -106 -106zM279 942c-32 0 -58 -26 -58 -58c0 -31 28 -57 58 -57s58 27 58 57c0 31 -27 58 -58 58z" />
    <glyph glyph-name="Atilde" unicode="&#xc3;" horiz-adv-x="556" 
d="M159 0h-150l179 750h189l170 -750h-150l-37 190h-164zM260 513l-42 -213h120l-38 213c-7 35 -10 69 -14 104c-1 17 -3 34 -5 50h-2c-2 -16 -4 -33 -5 -50c-4 -35 -7 -69 -14 -104zM397 930h65c-18 -101 -74 -121 -117 -121c-20 0 -69 16 -88 22c-15 6 -35 13 -52 13
c-7 0 -15 -1 -21 -5c-16 -8 -25 -35 -26 -37h-62c6 83 70 123 114 123c33 0 46 -7 76 -18c13 -5 48 -19 61 -19c28 0 43 15 50 42z" />
    <glyph glyph-name="Ccedilla" unicode="&#xc7;" horiz-adv-x="556" 
d="M212 -90l48 74c-192 16 -205 157 -205 344v107c6 191 21 333 245 333c125 -2 195 -66 205 -194c2 -19 4 -38 3 -57h-138c-6 48 -1 138 -70 138c-110 0 -101 -131 -101 -189v-208c0 -62 5 -163 101 -163c77 0 68 124 71 172h141c-1 -14 -2 -29 -3 -43
c-7 -133 -50 -236 -196 -241l-31 -44l2 -2c8 4 20 6 31 6c25 0 50 -6 68 -24c16 -12 22 -34 22 -53s-4 -29 -13 -46c-37 -47 -102 -55 -158 -44c-22 6 -43 14 -65 21l19 42c32 -10 53 -16 86 -16c23 0 48 21 44 46c-3 11 -9 20 -20 24c-20 10 -45 4 -65 -3z" />
    <glyph glyph-name="Eacute" unicode="&#xc9;" 
d="M458 0h-394v750h394v-110h-254v-189h234v-110h-234v-231h254v-110zM167 815l94 146h155l-148 -146h-101z" />
    <glyph glyph-name="Ecircumflex" unicode="&#xca;" 
d="M458 0h-394v750h394v-110h-254v-189h234v-110h-234v-231h254v-110zM187 956h125l115 -146h-114l-63 82l-64 -82h-112z" />
    <glyph glyph-name="Edieresis" unicode="&#xcb;" 
d="M458 0h-394v750h394v-110h-254v-189h234v-110h-234v-231h254v-110zM216 830h-127v115h127v-115zM412 830h-128v115h128v-115z" />
    <glyph glyph-name="Egrave" unicode="&#xc8;" 
d="M458 0h-394v750h394v-110h-254v-189h234v-110h-234v-231h254v-110zM85 961h155l94 -146h-101z" />
    <glyph glyph-name="Iacute" unicode="&#xcd;" horiz-adv-x="278" 
d="M209 0h-140v750h140v-750zM56 815l94 146h155l-148 -146h-101z" />
    <glyph glyph-name="Icircumflex" unicode="&#xce;" horiz-adv-x="278" 
d="M209 0h-140v750h140v-750zM76 956h125l115 -146h-114l-63 82l-64 -82h-112z" />
    <glyph glyph-name="Idieresis" unicode="&#xcf;" horiz-adv-x="278" 
d="M209 0h-140v750h140v-750zM105 830h-127v115h127v-115zM301 830h-128v115h128v-115z" />
    <glyph glyph-name="Igrave" unicode="&#xcc;" horiz-adv-x="278" 
d="M209 0h-140v750h140v-750zM-26 961h155l94 -146h-101z" />
    <glyph glyph-name="Ntilde" unicode="&#xd1;" horiz-adv-x="611" 
d="M403 603v147h140v-750h-146l-109 267c-37 89 -67 180 -100 298h-2c5 -62 11 -138 15 -214c4 -75 7 -150 7 -210v-141h-140v750h145l109 -273c36 -87 66 -176 100 -298h2c-5 68 -10 141 -14 213s-7 144 -7 211zM424 930h65c-18 -101 -74 -121 -117 -121
c-20 0 -69 16 -88 22c-15 6 -35 13 -52 13c-7 0 -15 -1 -21 -5c-16 -8 -25 -35 -26 -37h-62c6 83 70 123 114 123c33 0 46 -7 76 -18c13 -5 48 -19 61 -19c28 0 43 15 50 42z" />
    <glyph glyph-name="Oacute" unicode="&#xd3;" horiz-adv-x="611" 
d="M61 328v107c6 191 21 333 245 333s239 -142 245 -333v-107c0 -200 -15 -346 -245 -346s-245 146 -245 346zM205 466v-208c0 -62 5 -163 101 -163c100 0 101 103 101 175v202c0 64 -3 183 -101 183c-95 0 -101 -97 -101 -161v-28zM222 815l94 146h155l-148 -146h-101z" />
    <glyph glyph-name="Ocircumflex" unicode="&#xd4;" horiz-adv-x="611" 
d="M61 328v107c6 191 21 333 245 333s239 -142 245 -333v-107c0 -200 -15 -346 -245 -346s-245 146 -245 346zM205 466v-208c0 -62 5 -163 101 -163c100 0 101 103 101 175v202c0 64 -3 183 -101 183c-95 0 -101 -97 -101 -161v-28zM242 956h125l115 -146h-114l-63 82
l-64 -82h-112z" />
    <glyph glyph-name="Odieresis" unicode="&#xd6;" horiz-adv-x="611" 
d="M61 328v107c6 191 21 333 245 333s239 -142 245 -333v-107c0 -200 -15 -346 -245 -346s-245 146 -245 346zM205 466v-208c0 -62 5 -163 101 -163c100 0 101 103 101 175v202c0 64 -3 183 -101 183c-95 0 -101 -97 -101 -161v-28zM271 830h-127v115h127v-115zM467 830
h-128v115h128v-115z" />
    <glyph glyph-name="Ograve" unicode="&#xd2;" horiz-adv-x="611" 
d="M61 328v107c6 191 21 333 245 333s239 -142 245 -333v-107c0 -200 -15 -346 -245 -346s-245 146 -245 346zM205 466v-208c0 -62 5 -163 101 -163c100 0 101 103 101 175v202c0 64 -3 183 -101 183c-95 0 -101 -97 -101 -161v-28zM140 961h155l94 -146h-101z" />
    <glyph glyph-name="Otilde" unicode="&#xd5;" horiz-adv-x="611" 
d="M61 328v107c6 191 21 333 245 333s239 -142 245 -333v-107c0 -200 -15 -346 -245 -346s-245 146 -245 346zM205 466v-208c0 -62 5 -163 101 -163c100 0 101 103 101 175v202c0 64 -3 183 -101 183c-95 0 -101 -97 -101 -161v-28zM424 930h65c-18 -101 -74 -121 -117 -121
c-20 0 -69 16 -88 22c-15 6 -35 13 -52 13c-7 0 -15 -1 -21 -5c-16 -8 -25 -35 -26 -37h-62c6 83 70 123 114 123c33 0 46 -7 76 -18c13 -5 48 -19 61 -19c28 0 43 15 50 42z" />
    <glyph glyph-name="Scaron" unicode="&#x160;" horiz-adv-x="556" 
d="M489 522h-135v11c0 63 -9 122 -82 122c-47 0 -77 -19 -77 -70c0 -57 36 -79 80 -107c46 -29 131 -85 170 -123c48 -47 63 -92 63 -157c0 -142 -94 -216 -231 -216c-168 0 -228 94 -228 228v55h140v-57c0 -66 23 -113 88 -113c59 0 87 31 87 88c0 44 -20 74 -56 99
c-73 57 -164 98 -221 173c-23 34 -36 75 -36 115c0 128 72 198 220 198c223 0 217 -172 218 -246zM455 946l-115 -146h-125l-113 146h112l64 -82l63 82h114z" />
    <glyph glyph-name="Uacute" unicode="&#xda;" horiz-adv-x="611" 
d="M404 239v511h140v-523c0 -166 -54 -245 -237 -245c-185 0 -239 79 -239 245v523h140v-511c0 -72 5 -144 100 -144c91 0 96 72 96 144zM222 815l94 146h155l-148 -146h-101z" />
    <glyph glyph-name="Ucircumflex" unicode="&#xdb;" horiz-adv-x="611" 
d="M404 239v511h140v-523c0 -166 -54 -245 -237 -245c-185 0 -239 79 -239 245v523h140v-511c0 -72 5 -144 100 -144c91 0 96 72 96 144zM242 956h125l115 -146h-114l-63 82l-64 -82h-112z" />
    <glyph glyph-name="Udieresis" unicode="&#xdc;" horiz-adv-x="611" 
d="M404 239v511h140v-523c0 -166 -54 -245 -237 -245c-185 0 -239 79 -239 245v523h140v-511c0 -72 5 -144 100 -144c91 0 96 72 96 144zM271 830h-127v115h127v-115zM467 830h-128v115h128v-115z" />
    <glyph glyph-name="Ugrave" unicode="&#xd9;" horiz-adv-x="611" 
d="M404 239v511h140v-523c0 -166 -54 -245 -237 -245c-185 0 -239 79 -239 245v523h140v-511c0 -72 5 -144 100 -144c91 0 96 72 96 144zM140 961h155l94 -146h-101z" />
    <glyph glyph-name="Yacute" unicode="&#xdd;" horiz-adv-x="556" 
d="M165 750l79 -197c15 -37 27 -75 33 -115h2c10 58 29 100 46 142l67 170h153l-198 -431v-319h-140v319l-195 431h153zM195 815l94 146h155l-148 -146h-101z" />
    <glyph glyph-name="Ydieresis" unicode="&#x178;" horiz-adv-x="556" 
d="M165 750l79 -197c15 -37 27 -75 33 -115h2c10 58 29 100 46 142l67 170h153l-198 -431v-319h-140v319l-195 431h153zM244 830h-127v115h127v-115zM440 830h-128v115h128v-115z" />
    <glyph glyph-name="Zcaron" unicode="&#x17d;" 
d="M33 0v112l241 465c12 22 22 45 39 66c-18 -3 -36 -3 -54 -3h-210v110h410v-112l-241 -465c-12 -22 -22 -45 -39 -66c18 3 36 3 54 3h235v-110h-435zM427 946l-115 -146h-125l-113 146h112l64 -82l63 82h114z" />
    <glyph glyph-name="aacute" unicode="&#xe1;" 
d="M440 0h-123c-7 13 -9 27 -9 42c0 5 0 11 1 16h-2c-15 -23 -32 -42 -52 -54c-19 -12 -40 -19 -62 -19c-105 0 -151 53 -151 169c0 129 91 160 193 202c45 19 67 39 67 72c0 7 -1 14 -3 22c-6 25 -26 29 -61 29c-57 0 -68 -28 -68 -76v-6h-124v4c0 105 36 178 197 178
c167 0 186 -83 186 -154v-346c0 -27 4 -53 11 -79zM299 236v61c-32 -22 -71 -44 -105 -72c-19 -16 -22 -44 -22 -68c0 -43 13 -72 61 -72c77 0 63 97 66 151zM167 629l94 146h155l-148 -146h-101z" />
    <glyph glyph-name="acircumflex" unicode="&#xe2;" 
d="M440 0h-123c-7 13 -9 27 -9 42c0 5 0 11 1 16h-2c-15 -23 -32 -42 -52 -54c-19 -12 -40 -19 -62 -19c-105 0 -151 53 -151 169c0 129 91 160 193 202c45 19 67 39 67 72c0 7 -1 14 -3 22c-6 25 -26 29 -61 29c-57 0 -68 -28 -68 -76v-6h-124v4c0 105 36 178 197 178
c167 0 186 -83 186 -154v-346c0 -27 4 -53 11 -79zM299 236v61c-32 -22 -71 -44 -105 -72c-19 -16 -22 -44 -22 -68c0 -43 13 -72 61 -72c77 0 63 97 66 151zM187 770h125l115 -146h-114l-63 82l-64 -82h-112z" />
    <glyph glyph-name="adieresis" unicode="&#xe4;" 
d="M440 0h-123c-7 13 -9 27 -9 42c0 5 0 11 1 16h-2c-15 -23 -32 -42 -52 -54c-19 -12 -40 -19 -62 -19c-105 0 -151 53 -151 169c0 129 91 160 193 202c45 19 67 39 67 72c0 7 -1 14 -3 22c-6 25 -26 29 -61 29c-57 0 -68 -28 -68 -76v-6h-124v4c0 105 36 178 197 178
c167 0 186 -83 186 -154v-346c0 -27 4 -53 11 -79zM299 236v61c-32 -22 -71 -44 -105 -72c-19 -16 -22 -44 -22 -68c0 -43 13 -72 61 -72c77 0 63 97 66 151zM216 644h-127v115h127v-115zM412 644h-128v115h128v-115z" />
    <glyph glyph-name="agrave" unicode="&#xe0;" 
d="M440 0h-123c-7 13 -9 27 -9 42c0 5 0 11 1 16h-2c-15 -23 -32 -42 -52 -54c-19 -12 -40 -19 -62 -19c-105 0 -151 53 -151 169c0 129 91 160 193 202c45 19 67 39 67 72c0 7 -1 14 -3 22c-6 25 -26 29 -61 29c-57 0 -68 -28 -68 -76v-6h-124v4c0 105 36 178 197 178
c167 0 186 -83 186 -154v-346c0 -27 4 -53 11 -79zM299 236v61c-32 -22 -71 -44 -105 -72c-19 -16 -22 -44 -22 -68c0 -43 13 -72 61 -72c77 0 63 97 66 151zM85 775h155l94 -146h-101z" />
    <glyph glyph-name="aring" unicode="&#xe5;" 
d="M440 0h-123c-7 13 -9 27 -9 42c0 5 0 11 1 16h-2c-15 -23 -32 -42 -52 -54c-19 -12 -40 -19 -62 -19c-105 0 -151 53 -151 169c0 129 91 160 193 202c45 19 67 39 67 72c0 7 -1 14 -3 22c-6 25 -26 29 -61 29c-57 0 -68 -28 -68 -76v-6h-124v4c0 105 36 178 197 178
c167 0 186 -83 186 -154v-346c0 -27 4 -53 11 -79zM299 236v61c-32 -22 -71 -44 -105 -72c-19 -16 -22 -44 -22 -68c0 -43 13 -72 61 -72c77 0 63 97 66 151zM236 622c-58 0 -107 48 -107 106s49 107 107 107c59 0 106 -49 106 -107c0 -59 -47 -106 -106 -106zM236 786
c-32 0 -58 -26 -58 -58c0 -31 28 -57 58 -57s58 27 58 57c0 31 -27 58 -58 58z" />
    <glyph glyph-name="atilde" unicode="&#xe3;" 
d="M440 0h-123c-7 13 -9 27 -9 42c0 5 0 11 1 16h-2c-15 -23 -32 -42 -52 -54c-19 -12 -40 -19 -62 -19c-105 0 -151 53 -151 169c0 129 91 160 193 202c45 19 67 39 67 72c0 7 -1 14 -3 22c-6 25 -26 29 -61 29c-57 0 -68 -28 -68 -76v-6h-124v4c0 105 36 178 197 178
c167 0 186 -83 186 -154v-346c0 -27 4 -53 11 -79zM299 236v61c-32 -22 -71 -44 -105 -72c-19 -16 -22 -44 -22 -68c0 -43 13 -72 61 -72c77 0 63 97 66 151zM369 744h65c-18 -101 -74 -121 -117 -121c-20 0 -69 16 -88 22c-15 6 -35 13 -52 13c-7 0 -15 -1 -21 -5
c-16 -8 -25 -35 -26 -37h-62c6 83 70 123 114 123c33 0 46 -7 76 -18c13 -5 48 -19 61 -19c28 0 43 15 50 42z" />
    <glyph glyph-name="ccedilla" unicode="&#xe7;" horiz-adv-x="444" 
d="M152 -90l50 77c-101 7 -158 69 -153 209v183c-1 158 77 200 176 200c131 0 179 -82 178 -166v-45h-130v63c-2 31 -17 48 -45 48c-50 0 -50 -57 -49 -126v-133c-3 -110 10 -130 49 -135c40 1 41 38 45 83v52h130v-52c0 -108 -41 -172 -148 -181l-33 -48l2 -2
c8 4 20 6 31 6c25 0 50 -6 68 -24c16 -12 22 -34 22 -53s-4 -29 -13 -46c-37 -47 -102 -55 -158 -44c-22 6 -43 14 -65 21l19 42c32 -10 53 -16 86 -16c23 0 48 21 44 46c-3 11 -9 20 -20 24c-20 10 -45 4 -65 -3z" />
    <glyph glyph-name="eacute" unicode="&#xe9;" 
d="M53 222v164c0 123 67 193 190 193c181 0 200 -94 200 -248v-76h-260v-82c1 -74 29 -88 68 -88c45 0 60 31 60 94v12h130v-16c0 -117 -53 -190 -180 -190c-147 0 -208 68 -208 226v11zM183 355h130v49c-1 57 -16 75 -68 75c-60 0 -62 -42 -62 -88v-36zM167 629l94 146h155
l-148 -146h-101z" />
    <glyph glyph-name="ecircumflex" unicode="&#xea;" 
d="M53 222v164c0 123 67 193 190 193c181 0 200 -94 200 -248v-76h-260v-82c1 -74 29 -88 68 -88c45 0 60 31 60 94v12h130v-16c0 -117 -53 -190 -180 -190c-147 0 -208 68 -208 226v11zM183 355h130v49c-1 57 -16 75 -68 75c-60 0 -62 -42 -62 -88v-36zM187 770h125
l115 -146h-114l-63 82l-64 -82h-112z" />
    <glyph glyph-name="edieresis" unicode="&#xeb;" 
d="M53 222v164c0 123 67 193 190 193c181 0 200 -94 200 -248v-76h-260v-82c1 -74 29 -88 68 -88c45 0 60 31 60 94v12h130v-16c0 -117 -53 -190 -180 -190c-147 0 -208 68 -208 226v11zM183 355h130v49c-1 57 -16 75 -68 75c-60 0 -62 -42 -62 -88v-36zM216 644h-127v115
h127v-115zM412 644h-128v115h128v-115z" />
    <glyph glyph-name="egrave" unicode="&#xe8;" 
d="M53 222v164c0 123 67 193 190 193c181 0 200 -94 200 -248v-76h-260v-82c1 -74 29 -88 68 -88c45 0 60 31 60 94v12h130v-16c0 -117 -53 -190 -180 -190c-147 0 -208 68 -208 226v11zM183 355h130v49c-1 57 -16 75 -68 75c-60 0 -62 -42 -62 -88v-36zM85 775h155l94 -146
h-101z" />
    <glyph glyph-name="iacute" unicode="&#xed;" horiz-adv-x="278" 
d="M204 0h-130v564h130v-564zM56 629l94 146h155l-148 -146h-101z" />
    <glyph glyph-name="icircumflex" unicode="&#xee;" horiz-adv-x="278" 
d="M204 0h-130v564h130v-564zM65 770h125l115 -146h-114l-63 82l-64 -82h-112z" />
    <glyph glyph-name="idieresis" unicode="&#xef;" horiz-adv-x="278" 
d="M204 0h-130v564h130v-564zM105 644h-127v115h127v-115zM301 644h-128v115h128v-115z" />
    <glyph glyph-name="igrave" unicode="&#xec;" horiz-adv-x="278" 
d="M204 0h-130v564h130v-564zM-26 775h155l94 -146h-101z" />
    <glyph glyph-name="ntilde" unicode="&#xf1;" 
d="M191 564v-58h2c29 65 87 73 116 73c73 0 131 -40 131 -135v-444h-130v376c0 55 -6 91 -55 93h-3c-44 0 -61 -41 -61 -95v-374h-130v564h130zM369 744h65c-18 -101 -74 -121 -117 -121c-20 0 -69 16 -88 22c-15 6 -35 13 -52 13c-7 0 -15 -1 -21 -5
c-16 -8 -25 -35 -26 -37h-62c6 83 70 123 114 123c33 0 46 -7 76 -18c13 -5 48 -19 61 -19c28 0 43 15 50 42z" />
    <glyph glyph-name="oacute" unicode="&#xf3;" 
d="M183 372v-188c0 -69 6 -99 69 -99c60 0 65 30 65 99v188c0 53 0 107 -65 107c-69 0 -69 -54 -69 -107zM252 -15h-9c-160 0 -190 82 -190 268v9c1 193 3 317 199 317c193 0 194 -124 195 -317v-10c0 -185 -29 -267 -186 -267h-9zM167 629l94 146h155l-148 -146h-101z" />
    <glyph glyph-name="ocircumflex" unicode="&#xf4;" 
d="M183 372v-188c0 -69 6 -99 69 -99c60 0 65 30 65 99v188c0 53 0 107 -65 107c-69 0 -69 -54 -69 -107zM252 -15h-9c-160 0 -190 82 -190 268v9c1 193 3 317 199 317c193 0 194 -124 195 -317v-10c0 -185 -29 -267 -186 -267h-9zM187 770h125l115 -146h-114l-63 82
l-64 -82h-112z" />
    <glyph glyph-name="odieresis" unicode="&#xf6;" 
d="M183 372v-188c0 -69 6 -99 69 -99c60 0 65 30 65 99v188c0 53 0 107 -65 107c-69 0 -69 -54 -69 -107zM252 -15h-9c-160 0 -190 82 -190 268v9c1 193 3 317 199 317c193 0 194 -124 195 -317v-10c0 -185 -29 -267 -186 -267h-9zM216 644h-127v115h127v-115zM412 644h-128
v115h128v-115z" />
    <glyph glyph-name="ograve" unicode="&#xf2;" 
d="M183 372v-188c0 -69 6 -99 69 -99c60 0 65 30 65 99v188c0 53 0 107 -65 107c-69 0 -69 -54 -69 -107zM252 -15h-9c-160 0 -190 82 -190 268v9c1 193 3 317 199 317c193 0 194 -124 195 -317v-10c0 -185 -29 -267 -186 -267h-9zM85 775h155l94 -146h-101z" />
    <glyph glyph-name="otilde" unicode="&#xf5;" 
d="M183 372v-188c0 -69 6 -99 69 -99c60 0 65 30 65 99v188c0 53 0 107 -65 107c-69 0 -69 -54 -69 -107zM252 -15h-9c-160 0 -190 82 -190 268v9c1 193 3 317 199 317c193 0 194 -124 195 -317v-10c0 -185 -29 -267 -186 -267h-9zM369 744h65c-18 -101 -74 -121 -117 -121
c-20 0 -69 16 -88 22c-15 6 -35 13 -52 13c-7 0 -15 -1 -21 -5c-16 -8 -25 -35 -26 -37h-62c6 83 70 123 114 123c33 0 46 -7 76 -18c13 -5 48 -19 61 -19c28 0 43 15 50 42z" />
    <glyph glyph-name="scaron" unicode="&#x161;" horiz-adv-x="444" 
d="M29 186h130c-1 -11 -2 -21 -2 -30c0 -69 31 -71 57 -71h5c32 0 56 20 56 49c0 4 -1 9 -2 14c-2 32 -39 50 -64 67l-71 49c-65 45 -107 97 -107 178c0 87 69 137 194 137c123 0 181 -63 181 -178v-9h-130v13c0 53 -18 74 -60 74c-31 0 -55 -14 -55 -46
c0 -33 24 -48 49 -65l106 -72c33 -19 85 -73 89 -111c1 -13 2 -25 2 -38c0 -85 -38 -162 -195 -162c-65 0 -184 26 -184 174c0 9 0 18 1 27zM389 760l-115 -146h-125l-113 146h112l64 -82l63 82h114z" />
    <glyph glyph-name="uacute" unicode="&#xfa;" 
d="M307 0v84h-2c-20 -67 -58 -98 -121 -99c-103 0 -126 53 -126 147v432h130v-395c0 -23 1 -47 13 -66c11 -12 23 -18 40 -18c59 0 60 65 60 109v370h130v-564h-124zM167 629l94 146h155l-148 -146h-101z" />
    <glyph glyph-name="ucircumflex" unicode="&#xfb;" 
d="M307 0v84h-2c-20 -67 -58 -98 -121 -99c-103 0 -126 53 -126 147v432h130v-395c0 -23 1 -47 13 -66c11 -12 23 -18 40 -18c59 0 60 65 60 109v370h130v-564h-124zM187 780h125l115 -146h-114l-63 82l-64 -82h-112z" />
    <glyph glyph-name="udieresis" unicode="&#xfc;" 
d="M307 0v84h-2c-20 -67 -58 -98 -121 -99c-103 0 -126 53 -126 147v432h130v-395c0 -23 1 -47 13 -66c11 -12 23 -18 40 -18c59 0 60 65 60 109v370h130v-564h-124zM216 644h-127v115h127v-115zM412 644h-128v115h128v-115z" />
    <glyph glyph-name="ugrave" unicode="&#xf9;" 
d="M307 0v84h-2c-20 -67 -58 -98 -121 -99c-103 0 -126 53 -126 147v432h130v-395c0 -23 1 -47 13 -66c11 -12 23 -18 40 -18c59 0 60 65 60 109v370h130v-564h-124zM85 775h155l94 -146h-101z" />
    <glyph glyph-name="yacute" unicode="&#xfd;" horiz-adv-x="444" 
d="M5 564h137l57 -299c9 -50 14 -100 19 -150h2c4 49 11 98 20 146l57 303h132l-137 -572c-29 -112 -35 -187 -156 -187c-17 0 -37 2 -60 5v101c8 0 21 -2 34 -2c21 0 43 5 43 27c0 20 -7 52 -12 72zM139 629l94 146h155l-148 -146h-101z" />
    <glyph glyph-name="ydieresis" unicode="&#xff;" horiz-adv-x="444" 
d="M5 564h137l57 -299c9 -50 14 -100 19 -150h2c4 49 11 98 20 146l57 303h132l-137 -572c-29 -112 -35 -187 -156 -187c-17 0 -37 2 -60 5v101c8 0 21 -2 34 -2c21 0 43 5 43 27c0 20 -7 52 -12 72zM188 644h-127v115h127v-115zM384 644h-128v115h128v-115z" />
    <glyph glyph-name="zcaron" unicode="&#x17e;" horiz-adv-x="389" 
d="M367 471l-206 -371h206v-100h-344v102l198 362h-194v100h340v-93zM371 760l-115 -146h-125l-113 146h112l64 -82l63 82h114z" />
    <glyph glyph-name="Delta" unicode="&#x2206;" horiz-adv-x="595" 
d="M26 0v75l205 680h141l196 -677v-78h-542zM147 102h297l-94 304c-14 60 -42 147 -51 194h-3c-7 -41 -34 -117 -48 -179z" />
    <glyph glyph-name="Omega" unicode="&#x2126;" horiz-adv-x="624" 
d="M151 104v3c-54 66 -106 172 -106 304c0 188 108 341 270 341c175 0 261 -179 261 -331c0 -136 -54 -251 -108 -314v-3h121v-104h-233v75c49 41 98 145 98 316c0 131 -45 252 -141 252c-91 0 -146 -108 -146 -257c0 -156 49 -271 98 -311v-75h-233v104h119z" />
    <glyph glyph-name="uni03BC" unicode="&#x3bc;" horiz-adv-x="504" 
d="M431 0h-124v84h-2c-20 -65 -56 -97 -117 -79v-194h-130v753h130v-386c0 -25 -1 -53 13 -75c11 -12 23 -18 40 -18c61 0 60 69 60 113v366h130v-564z" />
    <glyph glyph-name="pi" unicode="&#x3c0;" horiz-adv-x="550" 
d="M528 447h-63v-300c0 -74 5 -115 12 -147h-115c-11 23 -17 73 -17 144v303h-121c-5 -110 -26 -325 -60 -447h-116c33 130 56 331 58 447c-44 0 -68 -4 -86 -10l-14 86c24 19 73 34 151 34h380z" />
    <glyph glyph-name="Euro" unicode="&#x20ac;" 
d="M464 154v-132c-36 -25 -84 -37 -132 -37c-171 0 -247 138 -265 297h-62l12 52h46v26c0 15 0 30 1 45h-59l13 52h51c20 164 96 296 267 296c59 0 118 -18 160 -54l-31 -129c-35 43 -64 69 -120 69c-93 0 -125 -96 -136 -182h229l-12 -52h-221c-1 -14 -1 -27 -1 -38
c0 -10 0 -22 1 -33h204l-13 -52h-186c12 -88 47 -184 131 -184c54 0 90 14 123 56z" />
    <glyph glyph-name="afii61289" unicode="&#x2113;" horiz-adv-x="467" 
d="M405 177l47 -50c-47 -101 -114 -138 -185 -138c-121 0 -165 85 -169 179c0 5 0 9 -1 13c-14 -12 -32 -28 -48 -42l-29 66c29 27 54 48 77 74v275c0 179 78 259 167 259c85 0 124 -79 124 -184c0 -121 -68 -243 -175 -362l1 -56c0 -85 33 -124 79 -124c48 0 86 46 112 90z
M213 542v-156c62 82 105 175 105 250c0 55 -12 84 -49 84c-27 0 -56 -39 -56 -178z" />
    <glyph glyph-name="estimated" unicode="&#x212e;" horiz-adv-x="926" 
d="M889 358h-691c-3 0 -5 -1 -5 -4v-209c0 -9 3 -17 9 -24c67 -69 159 -114 261 -114c110 0 208 50 275 127h61c-76 -89 -200 -148 -337 -148c-235 0 -426 171 -426 383s191 384 426 384c236 0 427 -172 427 -384v-11zM732 386v210c0 9 -3 18 -10 25
c-67 66 -158 109 -259 109s-193 -45 -260 -113c-7 -7 -10 -16 -10 -26v-205c0 -3 2 -7 5 -7h530c3 0 4 4 4 7z" />
    <glyph glyph-name="partialdiff" unicode="&#x2202;" horiz-adv-x="529" 
d="M98 679l-32 99c30 25 82 58 165 58c129 0 251 -123 251 -400c0 -279 -92 -445 -256 -445c-125 0 -188 126 -188 247c0 177 94 281 200 281c68 0 112 -46 125 -72h1c1 8 1 26 1 34c0 127 -59 249 -150 249c-53 0 -91 -27 -117 -51zM238 98h1c67 0 107 127 116 238
c-9 33 -42 79 -95 79c-62 0 -103 -89 -103 -183c0 -76 30 -134 81 -134z" />
    <glyph glyph-name="product" unicode="&#x220f;" horiz-adv-x="665" 
d="M638 624h-89v-726h-121v726h-192v-726h-121v726h-89v117h612v-117z" />
    <glyph glyph-name="summation" unicode="&#x2211;" horiz-adv-x="509" 
d="M490 -103h-466v85l220 339l-214 330v90h446v-106h-288v-4l190 -285l-214 -326v-3h326v-120z" />
    <glyph glyph-name="uni2219" unicode="&#x2219;" horiz-adv-x="333" 
d="M101 315h132v-132h-132v132z" />
    <glyph glyph-name="radical" unicode="&#x221a;" horiz-adv-x="553" 
d="M554 891l-204 -1036h-96l-134 464l-69 -27l-19 73l162 65l89 -322c7 -37 15 -75 18 -98l2 -1c3 23 7 65 14 105l155 777h82z" />
    <glyph glyph-name="infinity" unicode="&#x221e;" horiz-adv-x="759" 
d="M712 307v-1c0 -108 -76 -171 -157 -171c-57 0 -109 24 -174 110c-50 -63 -102 -110 -181 -110c-81 0 -154 67 -154 166s70 169 162 169c73 0 125 -43 175 -109c41 46 90 109 178 109c85 -1 151 -65 151 -163zM209 203h2c54 0 94 48 133 94c-41 55 -75 105 -138 105
c-57 0 -90 -44 -90 -102c1 -54 41 -97 93 -97zM554 402h-1c-60 0 -104 -62 -134 -98c58 -73 88 -101 139 -101c54 0 84 54 84 97c0 59 -35 102 -88 102z" />
    <glyph glyph-name="integral" unicode="&#x222b;" horiz-adv-x="390" 
d="M360 904l-13 -89c-9 5 -18 8 -32 8c-17 0 -33 -7 -46 -26c-20 -28 -25 -89 -25 -179c0 -173 13 -322 13 -512c0 -102 -12 -171 -34 -214c-26 -54 -77 -74 -125 -74c-31 0 -58 8 -71 16l15 92c9 -4 22 -10 39 -10c15 0 30 6 40 21c15 24 24 71 24 166
c0 193 -14 345 -14 526c0 124 16 190 57 238c27 32 72 48 114 48c24 0 47 -5 58 -11z" />
    <glyph glyph-name="approxequal" unicode="&#x2248;" horiz-adv-x="510" 
d="M430 466l43 -37c-26 -59 -71 -105 -126 -105c-36 0 -61 11 -103 38c-30 20 -51 34 -81 34c-41 0 -62 -36 -83 -71l-44 37c27 60 75 104 134 104c47 0 77 -23 100 -36c32 -20 53 -36 79 -36c36 0 57 31 81 72zM430 283l43 -37c-26 -59 -71 -105 -127 -105
c-35 0 -61 12 -102 39c-30 20 -51 34 -81 34c-41 0 -62 -36 -83 -72l-44 37c27 60 75 104 134 104c47 0 77 -22 99 -35c31 -19 53 -36 80 -36c36 0 57 30 81 71z" />
    <glyph glyph-name="notequal" unicode="&#x2260;" horiz-adv-x="510" 
d="M376 525l-36 -85h124v-73h-149l-55 -133h204v-73h-230l-45 -108l-56 21l37 87h-125v73h151l54 133h-205v73h231l44 106z" />
    <glyph glyph-name="lessequal" unicode="&#x2264;" horiz-adv-x="510" 
d="M461 106l-410 223v79l410 223v-86l-342 -175v-2l342 -175v-87zM466 -6h-419v74h419v-74z" />
    <glyph glyph-name="greaterequal" unicode="&#x2265;" horiz-adv-x="510" 
d="M53 631l411 -223v-79l-411 -223v87l342 175v2l-342 175v86zM465 -6h-417v74h417v-74z" />
    <glyph glyph-name="lozenge" unicode="&#x25ca;" horiz-adv-x="552" 
d="M504 370l-182 -418h-99l-175 418l182 419h100zM396 367l-98 244c-8 22 -15 50 -18 70h-4c-4 -21 -11 -47 -19 -70l-101 -238l100 -249c7 -23 13 -51 16 -66h5c3 16 12 52 17 64z" />
    <glyph glyph-name="uni00A0" unicode="&#xa0;" horiz-adv-x="250" 
 />
    <glyph glyph-name="uni00AD" unicode="&#xad;" horiz-adv-x="333" 
d="M286 255h-238v115h238v-115z" />
    <glyph glyph-name="uni02C9" unicode="&#x2c9;" horiz-adv-x="333" 
d="M340 666h-346v74h346v-74z" />
    <glyph glyph-name="uni03A9" unicode="&#x3a9;" horiz-adv-x="624" 
d="M151 104v3c-54 66 -106 172 -106 304c0 188 108 341 270 341c175 0 261 -179 261 -331c0 -136 -54 -251 -108 -314v-3h121v-104h-233v75c49 41 98 145 98 316c0 131 -45 252 -141 252c-91 0 -146 -108 -146 -257c0 -156 49 -271 98 -311v-75h-233v104h119z" />
    <glyph glyph-name="uni2215" unicode="&#x2215;" horiz-adv-x="167" 
d="M-94 0h-75l425 738h75z" />
    </font>
</defs>
</svg>
